<?xml version="1.0" encoding="UTF-8" standalone="no"?>
<!DOCTYPE svg PUBLIC "-//W3C//DTD SVG 1.1//EN"
 "http://www.w3.org/Graphics/SVG/1.1/DTD/svg11.dtd">
<!-- Generated by graphviz version 2.40.1 (20161225.0304)
 -->
<!-- Title: snakemake_dag Pages: 1 -->
<svg width="841pt" height="620pt"
 viewBox="0.00 0.00 840.50 620.00" xmlns="http://www.w3.org/2000/svg" xmlns:xlink="http://www.w3.org/1999/xlink">
<g id="graph0" class="graph" transform="scale(1 1) rotate(0) translate(4 616)">
<title>snakemake_dag</title>
<polygon fill="#ffffff" stroke="transparent" points="-4,4 -4,-616 836.5,-616 836.5,4 -4,4"/>
<!-- 0 -->
<g id="node1" class="node">
<title>0</title>
<path fill="none" stroke="#56d8c9" stroke-width="2" d="M322,-36C322,-36 292,-36 292,-36 286,-36 280,-30 280,-24 280,-24 280,-12 280,-12 280,-6 286,0 292,0 292,0 322,0 322,0 328,0 334,-6 334,-12 334,-12 334,-24 334,-24 334,-30 328,-36 322,-36"/>
<text text-anchor="middle" x="307" y="-15.5" font-family="sans" font-size="10.00" fill="#000000">all</text>
</g>
<!-- 1 -->
<g id="node2" class="node">
<title>1</title>
<path fill="none" stroke="#56d882" stroke-width="2" d="M327.5,-252C327.5,-252 184.5,-252 184.5,-252 178.5,-252 172.5,-246 172.5,-240 172.5,-240 172.5,-228 172.5,-228 172.5,-222 178.5,-216 184.5,-216 184.5,-216 327.5,-216 327.5,-216 333.5,-216 339.5,-222 339.5,-228 339.5,-228 339.5,-240 339.5,-240 339.5,-246 333.5,-252 327.5,-252"/>
<text text-anchor="middle" x="256" y="-231.5" font-family="sans" font-size="10.00" fill="#000000">run_make_genelists_screenbeam</text>
</g>
<!-- 1&#45;&gt;0 -->
<g id="edge7" class="edge">
<title>1&#45;&gt;0</title>
<path fill="none" stroke="#c0c0c0" stroke-width="2" d="M260.2605,-215.9555C269.148,-178.3144 289.7198,-91.1867 300.3595,-46.1246"/>
<polygon fill="#c0c0c0" stroke="#c0c0c0" stroke-width="2" points="303.8241,-46.6818 302.7157,-36.1451 297.0114,-45.0732 303.8241,-46.6818"/>
</g>
<!-- 2 -->
<g id="node3" class="node">
<title>2</title>
<path fill="none" stroke="#80d856" stroke-width="2" d="M820.5,-252C820.5,-252 697.5,-252 697.5,-252 691.5,-252 685.5,-246 685.5,-240 685.5,-240 685.5,-228 685.5,-228 685.5,-222 691.5,-216 697.5,-216 697.5,-216 820.5,-216 820.5,-216 826.5,-216 832.5,-222 832.5,-228 832.5,-228 832.5,-240 832.5,-240 832.5,-246 826.5,-252 820.5,-252"/>
<text text-anchor="middle" x="759" y="-231.5" font-family="sans" font-size="10.00" fill="#000000">run_make_genelists_mageck</text>
</g>
<!-- 2&#45;&gt;0 -->
<g id="edge4" class="edge">
<title>2&#45;&gt;0</title>
<path fill="none" stroke="#c0c0c0" stroke-width="2" d="M725.2948,-215.854C680.7499,-191.7441 599.9703,-147.5783 532,-108 505.4542,-92.5427 500.9066,-84.8385 473,-72 430.3338,-52.3712 378.4935,-36.7189 344.2209,-27.4216"/>
<polygon fill="#c0c0c0" stroke="#c0c0c0" stroke-width="2" points="344.7424,-23.9384 334.1782,-24.7429 342.9383,-30.7019 344.7424,-23.9384"/>
</g>
<!-- 3 -->
<g id="node4" class="node">
<title>3</title>
<path fill="none" stroke="#a7d856" stroke-width="2" d="M583,-108C583,-108 553,-108 553,-108 547,-108 541,-102 541,-96 541,-96 541,-84 541,-84 541,-78 547,-72 553,-72 553,-72 583,-72 583,-72 589,-72 595,-78 595,-84 595,-84 595,-96 595,-96 595,-102 589,-108 583,-108"/>
<text text-anchor="middle" x="568" y="-87.5" font-family="sans" font-size="10.00" fill="#000000">fastqc</text>
</g>
<!-- 3&#45;&gt;0 -->
<g id="edge8" class="edge">
<title>3&#45;&gt;0</title>
<path fill="none" stroke="#c0c0c0" stroke-width="2" d="M540.9129,-77.3247C536.3223,-75.4035 531.5641,-73.549 527,-72 464.0782,-50.6449 388.3843,-33.9567 344.1842,-25.077"/>
<polygon fill="#c0c0c0" stroke="#c0c0c0" stroke-width="2" points="344.6737,-21.606 334.1838,-23.0935 343.3118,-28.4722 344.6737,-21.606"/>
</g>
<!-- 4 -->
<g id="node5" class="node">
<title>4</title>
<path fill="none" stroke="#d89c56" stroke-width="2" d="M104,-324C104,-324 40,-324 40,-324 34,-324 28,-318 28,-312 28,-312 28,-300 28,-300 28,-294 34,-288 40,-288 40,-288 104,-288 104,-288 110,-288 116,-294 116,-300 116,-300 116,-312 116,-312 116,-318 110,-324 104,-324"/>
<text text-anchor="middle" x="72" y="-303.5" font-family="sans" font-size="10.00" fill="#000000">run_plot_counts</text>
</g>
<!-- 4&#45;&gt;0 -->
<g id="edge5" class="edge">
<title>4&#45;&gt;0</title>
<path fill="none" stroke="#c0c0c0" stroke-width="2" d="M70.9113,-287.9917C69.323,-244.6677 71.5388,-133.654 130,-72 149.2157,-51.7349 223.9625,-34.09 269.9551,-24.8526"/>
<polygon fill="#c0c0c0" stroke="#c0c0c0" stroke-width="2" points="270.7245,-28.2684 279.8606,-22.9035 269.3729,-21.4001 270.7245,-28.2684"/>
</g>
<!-- 5 -->
<g id="node6" class="node">
<title>5</title>
<path fill="none" stroke="#567bd8" stroke-width="2" d="M655.5,-252C655.5,-252 540.5,-252 540.5,-252 534.5,-252 528.5,-246 528.5,-240 528.5,-240 528.5,-228 528.5,-228 528.5,-222 534.5,-216 540.5,-216 540.5,-216 655.5,-216 655.5,-216 661.5,-216 667.5,-222 667.5,-228 667.5,-228 667.5,-240 667.5,-240 667.5,-246 661.5,-252 655.5,-252"/>
<text text-anchor="middle" x="598" y="-231.5" font-family="sans" font-size="10.00" fill="#000000">run_make_genelists_pbnpa</text>
</g>
<!-- 5&#45;&gt;0 -->
<g id="edge6" class="edge">
<title>5&#45;&gt;0</title>
<path fill="none" stroke="#c0c0c0" stroke-width="2" d="M551.3481,-215.9676C533.2801,-207.219 513.5007,-195.254 499,-180 462.295,-141.3882 486.1574,-108.1223 447,-72 418.1846,-45.4181 374.8686,-31.428 344.0576,-24.4112"/>
<polygon fill="#c0c0c0" stroke="#c0c0c0" stroke-width="2" points="344.6375,-20.9562 334.1271,-22.2909 343.1758,-27.8019 344.6375,-20.9562"/>
</g>
<!-- 6 -->
<g id="node7" class="node">
<title>6</title>
<path fill="none" stroke="#56d0d8" stroke-width="2" d="M426.5,-108C426.5,-108 317.5,-108 317.5,-108 311.5,-108 305.5,-102 305.5,-96 305.5,-96 305.5,-84 305.5,-84 305.5,-78 311.5,-72 317.5,-72 317.5,-72 426.5,-72 426.5,-72 432.5,-72 438.5,-78 438.5,-84 438.5,-84 438.5,-96 438.5,-96 438.5,-102 432.5,-108 426.5,-108"/>
<text text-anchor="middle" x="372" y="-87.5" font-family="sans" font-size="10.00" fill="#000000">run_make_genelists_stars</text>
</g>
<!-- 6&#45;&gt;0 -->
<g id="edge1" class="edge">
<title>6&#45;&gt;0</title>
<path fill="none" stroke="#c0c0c0" stroke-width="2" d="M355.5978,-71.8314C347.9585,-63.3694 338.7317,-53.1489 330.3793,-43.8971"/>
<polygon fill="#c0c0c0" stroke="#c0c0c0" stroke-width="2" points="332.9221,-41.4906 323.6231,-36.4133 327.7262,-46.1813 332.9221,-41.4906"/>
</g>
<!-- 7 -->
<g id="node8" class="node">
<title>7</title>
<path fill="none" stroke="#d87d56" stroke-width="2" d="M379.5,-468C379.5,-468 318.5,-468 318.5,-468 312.5,-468 306.5,-462 306.5,-456 306.5,-456 306.5,-444 306.5,-444 306.5,-438 312.5,-432 318.5,-432 318.5,-432 379.5,-432 379.5,-432 385.5,-432 391.5,-438 391.5,-444 391.5,-444 391.5,-456 391.5,-456 391.5,-462 385.5,-468 379.5,-468"/>
<text text-anchor="middle" x="349" y="-447.5" font-family="sans" font-size="10.00" fill="#000000">bam_to_counts</text>
</g>
<!-- 7&#45;&gt;0 -->
<g id="edge2" class="edge">
<title>7&#45;&gt;0</title>
<path fill="none" stroke="#c0c0c0" stroke-width="2" d="M306.2057,-441.7521C213.0127,-422.5667 0,-371.5453 0,-306 0,-306 0,-306 0,-162 0,-101.5425 48.6641,-100.4674 102,-72 156.4423,-42.9421 227.5121,-28.783 270.0723,-22.4716"/>
<polygon fill="#c0c0c0" stroke="#c0c0c0" stroke-width="2" points="270.5828,-25.9343 279.9932,-21.0665 269.6011,-19.0035 270.5828,-25.9343"/>
</g>
<!-- 7&#45;&gt;4 -->
<g id="edge14" class="edge">
<title>7&#45;&gt;4</title>
<path fill="none" stroke="#c0c0c0" stroke-width="2" d="M314.1982,-431.9081C263.9248,-405.7732 170.9988,-357.4651 116.0221,-328.8851"/>
<polygon fill="#c0c0c0" stroke="#c0c0c0" stroke-width="2" points="117.3644,-325.6383 106.8773,-324.1311 114.1356,-331.8492 117.3644,-325.6383"/>
</g>
<!-- 8 -->
<g id="node9" class="node">
<title>8</title>
<path fill="none" stroke="#97d856" stroke-width="2" d="M384.5,-396C384.5,-396 313.5,-396 313.5,-396 307.5,-396 301.5,-390 301.5,-384 301.5,-384 301.5,-372 301.5,-372 301.5,-366 307.5,-360 313.5,-360 313.5,-360 384.5,-360 384.5,-360 390.5,-360 396.5,-366 396.5,-372 396.5,-372 396.5,-384 396.5,-384 396.5,-390 390.5,-396 384.5,-396"/>
<text text-anchor="middle" x="349" y="-375.5" font-family="sans" font-size="10.00" fill="#000000">normalize_counts</text>
</g>
<!-- 7&#45;&gt;8 -->
<g id="edge19" class="edge">
<title>7&#45;&gt;8</title>
<path fill="none" stroke="#c0c0c0" stroke-width="2" d="M349,-431.8314C349,-424.131 349,-414.9743 349,-406.4166"/>
<polygon fill="#c0c0c0" stroke="#c0c0c0" stroke-width="2" points="352.5001,-406.4132 349,-396.4133 345.5001,-406.4133 352.5001,-406.4132"/>
</g>
<!-- 11 -->
<g id="node12" class="node">
<title>11</title>
<path fill="none" stroke="#d8c356" stroke-width="2" d="M631,-396C631,-396 549,-396 549,-396 543,-396 537,-390 537,-384 537,-384 537,-372 537,-372 537,-366 543,-360 549,-360 549,-360 631,-360 631,-360 637,-360 643,-366 643,-372 643,-372 643,-384 643,-384 643,-390 637,-396 631,-396"/>
<text text-anchor="middle" x="590" y="-375.5" font-family="sans" font-size="10.00" fill="#000000">run_PBNPA_default</text>
</g>
<!-- 7&#45;&gt;11 -->
<g id="edge22" class="edge">
<title>7&#45;&gt;11</title>
<path fill="none" stroke="#c0c0c0" stroke-width="2" d="M391.5312,-437.2936C429.1405,-426.0576 484.5079,-409.5163 527.2136,-396.7578"/>
<polygon fill="#c0c0c0" stroke="#c0c0c0" stroke-width="2" points="528.3688,-400.0656 536.9484,-393.8494 526.365,-393.3585 528.3688,-400.0656"/>
</g>
<!-- 16 -->
<g id="node17" class="node">
<title>16</title>
<path fill="none" stroke="#56d873" stroke-width="2" d="M817.5,-396C817.5,-396 734.5,-396 734.5,-396 728.5,-396 722.5,-390 722.5,-384 722.5,-384 722.5,-372 722.5,-372 722.5,-366 728.5,-360 734.5,-360 734.5,-360 817.5,-360 817.5,-360 823.5,-360 829.5,-366 829.5,-372 829.5,-372 829.5,-384 829.5,-384 829.5,-390 823.5,-396 817.5,-396"/>
<text text-anchor="middle" x="776" y="-375.5" font-family="sans" font-size="10.00" fill="#000000">run_mageck_default</text>
</g>
<!-- 7&#45;&gt;16 -->
<g id="edge28" class="edge">
<title>7&#45;&gt;16</title>
<path fill="none" stroke="#c0c0c0" stroke-width="2" d="M391.5035,-442.8331C466.8604,-430.1266 624.2391,-403.5897 712.4984,-388.7075"/>
<polygon fill="#c0c0c0" stroke="#c0c0c0" stroke-width="2" points="713.1074,-392.1543 722.3862,-387.0403 711.9435,-385.2518 713.1074,-392.1543"/>
</g>
<!-- 8&#45;&gt;0 -->
<g id="edge3" class="edge">
<title>8&#45;&gt;0</title>
<path fill="none" stroke="#c0c0c0" stroke-width="2" d="M301.4673,-369.9204C252.8162,-360.687 181.7571,-344.2093 163,-324 135.1889,-294.0358 144,-274.8816 144,-234 144,-234 144,-234 144,-162 144,-95.0569 222.1731,-51.7723 270.2458,-31.4833"/>
<polygon fill="#c0c0c0" stroke="#c0c0c0" stroke-width="2" points="271.7817,-34.6367 279.7175,-27.6171 269.1363,-28.1558 271.7817,-34.6367"/>
</g>
<!-- 8&#45;&gt;4 -->
<g id="edge13" class="edge">
<title>8&#45;&gt;4</title>
<path fill="none" stroke="#c0c0c0" stroke-width="2" d="M301.3692,-367.1131C256.864,-356.7381 188.6653,-340.3205 130,-324 128.743,-323.6503 127.472,-323.2924 126.1913,-322.9278"/>
<polygon fill="#c0c0c0" stroke="#c0c0c0" stroke-width="2" points="126.8339,-319.4694 116.2538,-320.0295 124.8739,-326.1895 126.8339,-319.4694"/>
</g>
<!-- 9 -->
<g id="node10" class="node">
<title>9</title>
<path fill="none" stroke="#566bd8" stroke-width="2" d="M257.5,-324C257.5,-324 184.5,-324 184.5,-324 178.5,-324 172.5,-318 172.5,-312 172.5,-312 172.5,-300 172.5,-300 172.5,-294 178.5,-288 184.5,-288 184.5,-288 257.5,-288 257.5,-288 263.5,-288 269.5,-294 269.5,-300 269.5,-300 269.5,-312 269.5,-312 269.5,-318 263.5,-324 257.5,-324"/>
<text text-anchor="middle" x="221" y="-303.5" font-family="sans" font-size="10.00" fill="#000000">run_screen_beam</text>
</g>
<!-- 8&#45;&gt;9 -->
<g id="edge20" class="edge">
<title>8&#45;&gt;9</title>
<path fill="none" stroke="#c0c0c0" stroke-width="2" d="M316.7002,-359.8314C300.1766,-350.5368 279.8814,-339.1208 262.2393,-329.1971"/>
<polygon fill="#c0c0c0" stroke="#c0c0c0" stroke-width="2" points="263.7212,-326.015 253.2895,-324.1628 260.2893,-332.116 263.7212,-326.015"/>
</g>
<!-- 10 -->
<g id="node11" class="node">
<title>10</title>
<path fill="none" stroke="#d8d356" stroke-width="2" d="M759,-324C759,-324 687,-324 687,-324 681,-324 675,-318 675,-312 675,-312 675,-300 675,-300 675,-294 681,-288 687,-288 687,-288 759,-288 759,-288 765,-288 771,-294 771,-300 771,-300 771,-312 771,-312 771,-318 765,-324 759,-324"/>
<text text-anchor="middle" x="723" y="-303.5" font-family="sans" font-size="10.00" fill="#000000">run_mageck_total</text>
</g>
<!-- 8&#45;&gt;10 -->
<g id="edge21" class="edge">
<title>8&#45;&gt;10</title>
<path fill="none" stroke="#c0c0c0" stroke-width="2" d="M396.6751,-371.957C457.0569,-363.846 564.3825,-347.9061 664.9105,-324.0954"/>
<polygon fill="#c0c0c0" stroke="#c0c0c0" stroke-width="2" points="666.0218,-327.4282 674.9285,-321.6906 664.3878,-320.6215 666.0218,-327.4282"/>
</g>
<!-- 13 -->
<g id="node14" class="node">
<title>13</title>
<path fill="none" stroke="#d88d56" stroke-width="2" d="M398,-324C398,-324 300,-324 300,-324 294,-324 288,-318 288,-312 288,-312 288,-300 288,-300 288,-294 294,-288 300,-288 300,-288 398,-288 398,-288 404,-288 410,-294 410,-300 410,-300 410,-312 410,-312 410,-318 404,-324 398,-324"/>
<text text-anchor="middle" x="349" y="-303.5" font-family="sans" font-size="10.00" fill="#000000">run_screen_beam_total</text>
</g>
<!-- 8&#45;&gt;13 -->
<g id="edge25" class="edge">
<title>8&#45;&gt;13</title>
<path fill="none" stroke="#c0c0c0" stroke-width="2" d="M349,-359.8314C349,-352.131 349,-342.9743 349,-334.4166"/>
<polygon fill="#c0c0c0" stroke="#c0c0c0" stroke-width="2" points="352.5001,-334.4132 349,-324.4133 345.5001,-334.4133 352.5001,-334.4132"/>
</g>
<!-- 15 -->
<g id="node16" class="node">
<title>15</title>
<path fill="none" stroke="#d86656" stroke-width="2" d="M644.5,-324C644.5,-324 573.5,-324 573.5,-324 567.5,-324 561.5,-318 561.5,-312 561.5,-312 561.5,-300 561.5,-300 561.5,-294 567.5,-288 573.5,-288 573.5,-288 644.5,-288 644.5,-288 650.5,-288 656.5,-294 656.5,-300 656.5,-300 656.5,-312 656.5,-312 656.5,-318 650.5,-324 644.5,-324"/>
<text text-anchor="middle" x="609" y="-303.5" font-family="sans" font-size="10.00" fill="#000000">run_PBNPA_total</text>
</g>
<!-- 8&#45;&gt;15 -->
<g id="edge27" class="edge">
<title>8&#45;&gt;15</title>
<path fill="none" stroke="#c0c0c0" stroke-width="2" d="M396.5981,-366.1499C435.88,-356.2013 493.2852,-341.2764 551.6413,-324.3362"/>
<polygon fill="#c0c0c0" stroke="#c0c0c0" stroke-width="2" points="552.7751,-327.6514 561.3933,-321.4888 550.8131,-320.9319 552.7751,-327.6514"/>
</g>
<!-- 18 -->
<g id="node19" class="node">
<title>18</title>
<path fill="none" stroke="#61d856" stroke-width="2" d="M531.5,-324C531.5,-324 440.5,-324 440.5,-324 434.5,-324 428.5,-318 428.5,-312 428.5,-312 428.5,-300 428.5,-300 428.5,-294 434.5,-288 440.5,-288 440.5,-288 531.5,-288 531.5,-288 537.5,-288 543.5,-294 543.5,-300 543.5,-300 543.5,-312 543.5,-312 543.5,-318 537.5,-324 531.5,-324"/>
<text text-anchor="middle" x="486" y="-303.5" font-family="sans" font-size="10.00" fill="#000000">get_pertubations_total</text>
</g>
<!-- 8&#45;&gt;18 -->
<g id="edge30" class="edge">
<title>8&#45;&gt;18</title>
<path fill="none" stroke="#c0c0c0" stroke-width="2" d="M383.5709,-359.8314C401.4185,-350.4516 423.3774,-338.9112 442.38,-328.9244"/>
<polygon fill="#c0c0c0" stroke="#c0c0c0" stroke-width="2" points="444.2164,-331.9132 451.4402,-324.1628 440.9599,-325.7168 444.2164,-331.9132"/>
</g>
<!-- 9&#45;&gt;1 -->
<g id="edge9" class="edge">
<title>9&#45;&gt;1</title>
<path fill="none" stroke="#c0c0c0" stroke-width="2" d="M229.832,-287.8314C233.6986,-279.8771 238.3206,-270.369 242.5968,-261.5723"/>
<polygon fill="#c0c0c0" stroke="#c0c0c0" stroke-width="2" points="245.8249,-262.9371 247.0491,-252.4133 239.5293,-259.8768 245.8249,-262.9371"/>
</g>
<!-- 10&#45;&gt;2 -->
<g id="edge12" class="edge">
<title>10&#45;&gt;2</title>
<path fill="none" stroke="#c0c0c0" stroke-width="2" d="M732.0843,-287.8314C736.0615,-279.8771 740.8155,-270.369 745.2139,-261.5723"/>
<polygon fill="#c0c0c0" stroke="#c0c0c0" stroke-width="2" points="748.4517,-262.9228 749.7934,-252.4133 742.1907,-259.7923 748.4517,-262.9228"/>
</g>
<!-- 11&#45;&gt;5 -->
<g id="edge15" class="edge">
<title>11&#45;&gt;5</title>
<path fill="none" stroke="#c0c0c0" stroke-width="2" d="M643.1411,-370.1491C693.3794,-361.5115 763.4642,-345.8904 780,-324 789.644,-311.2331 789.5703,-300.8222 780,-288 773.3627,-279.1074 723.3425,-264.6271 677.4199,-252.8988"/>
<polygon fill="#c0c0c0" stroke="#c0c0c0" stroke-width="2" points="678.2528,-249.4993 667.6999,-250.4409 676.5367,-256.2857 678.2528,-249.4993"/>
</g>
<!-- 12 -->
<g id="node13" class="node">
<title>12</title>
<path fill="none" stroke="#d85656" stroke-width="2" d="M434.5,-180C434.5,-180 375.5,-180 375.5,-180 369.5,-180 363.5,-174 363.5,-168 363.5,-168 363.5,-156 363.5,-156 363.5,-150 369.5,-144 375.5,-144 375.5,-144 434.5,-144 434.5,-144 440.5,-144 446.5,-150 446.5,-156 446.5,-156 446.5,-168 446.5,-168 446.5,-174 440.5,-180 434.5,-180"/>
<text text-anchor="middle" x="405" y="-159.5" font-family="sans" font-size="10.00" fill="#000000">run_stars_total</text>
</g>
<!-- 12&#45;&gt;6 -->
<g id="edge17" class="edge">
<title>12&#45;&gt;6</title>
<path fill="none" stroke="#c0c0c0" stroke-width="2" d="M396.6727,-143.8314C393.027,-135.8771 388.6691,-126.369 384.6373,-117.5723"/>
<polygon fill="#c0c0c0" stroke="#c0c0c0" stroke-width="2" points="387.7877,-116.0456 380.4394,-108.4133 381.4243,-118.9622 387.7877,-116.0456"/>
</g>
<!-- 13&#45;&gt;1 -->
<g id="edge10" class="edge">
<title>13&#45;&gt;1</title>
<path fill="none" stroke="#c0c0c0" stroke-width="2" d="M325.5322,-287.8314C313.9673,-278.8779 299.8596,-267.9558 287.3817,-258.2955"/>
<polygon fill="#c0c0c0" stroke="#c0c0c0" stroke-width="2" points="289.5102,-255.5171 279.4603,-252.1628 285.225,-261.0521 289.5102,-255.5171"/>
</g>
<!-- 14 -->
<g id="node15" class="node">
<title>14</title>
<path fill="none" stroke="#b6d856" stroke-width="2" d="M364,-540C364,-540 334,-540 334,-540 328,-540 322,-534 322,-528 322,-528 322,-516 322,-516 322,-510 328,-504 334,-504 334,-504 364,-504 364,-504 370,-504 376,-510 376,-516 376,-516 376,-528 376,-528 376,-534 370,-540 364,-540"/>
<text text-anchor="middle" x="349" y="-519.5" font-family="sans" font-size="10.00" fill="#000000">align</text>
</g>
<!-- 14&#45;&gt;7 -->
<g id="edge18" class="edge">
<title>14&#45;&gt;7</title>
<path fill="none" stroke="#c0c0c0" stroke-width="2" d="M349,-503.8314C349,-496.131 349,-486.9743 349,-478.4166"/>
<polygon fill="#c0c0c0" stroke="#c0c0c0" stroke-width="2" points="352.5001,-478.4132 349,-468.4133 345.5001,-478.4133 352.5001,-478.4132"/>
</g>
<!-- 15&#45;&gt;5 -->
<g id="edge16" class="edge">
<title>15&#45;&gt;5</title>
<path fill="none" stroke="#c0c0c0" stroke-width="2" d="M606.2242,-287.8314C605.0478,-280.131 603.6489,-270.9743 602.3414,-262.4166"/>
<polygon fill="#c0c0c0" stroke="#c0c0c0" stroke-width="2" points="605.7833,-261.7699 600.8131,-252.4133 598.8636,-262.8272 605.7833,-261.7699"/>
</g>
<!-- 16&#45;&gt;2 -->
<g id="edge11" class="edge">
<title>16&#45;&gt;2</title>
<path fill="none" stroke="#c0c0c0" stroke-width="2" d="M785.9133,-359.8485C794.6081,-341.512 804.7482,-312.4743 797,-288 793.9185,-278.2664 788.3817,-268.7695 782.4711,-260.5228"/>
<polygon fill="#c0c0c0" stroke="#c0c0c0" stroke-width="2" points="785.1248,-258.2316 776.2635,-252.4239 779.569,-262.49 785.1248,-258.2316"/>
</g>
<!-- 17 -->
<g id="node18" class="node">
<title>17</title>
<path fill="none" stroke="#d8ac56" stroke-width="2" d="M450,-252C450,-252 370,-252 370,-252 364,-252 358,-246 358,-240 358,-240 358,-228 358,-228 358,-222 364,-216 370,-216 370,-216 450,-216 450,-216 456,-216 462,-222 462,-228 462,-228 462,-240 462,-240 462,-246 456,-252 450,-252"/>
<text text-anchor="middle" x="410" y="-231.5" font-family="sans" font-size="10.00" fill="#000000">run_stars_null_total</text>
</g>
<!-- 17&#45;&gt;12 -->
<g id="edge23" class="edge">
<title>17&#45;&gt;12</title>
<path fill="none" stroke="#c0c0c0" stroke-width="2" d="M408.7383,-215.8314C408.2035,-208.131 407.5677,-198.9743 406.9734,-190.4166"/>
<polygon fill="#c0c0c0" stroke="#c0c0c0" stroke-width="2" points="410.4632,-190.1467 406.2787,-180.4133 403.48,-190.6317 410.4632,-190.1467"/>
</g>
<!-- 18&#45;&gt;12 -->
<g id="edge24" class="edge">
<title>18&#45;&gt;12</title>
<path fill="none" stroke="#c0c0c0" stroke-width="2" d="M486.6242,-287.8424C486.4856,-268.7193 483.9438,-238.3413 471,-216 464.3824,-204.5779 454.3681,-194.5616 444.126,-186.3574"/>
<polygon fill="#c0c0c0" stroke="#c0c0c0" stroke-width="2" points="446.0158,-183.399 435.9237,-180.1741 441.802,-188.9886 446.0158,-183.399"/>
</g>
<!-- 18&#45;&gt;17 -->
<g id="edge29" class="edge">
<title>18&#45;&gt;17</title>
<path fill="none" stroke="#c0c0c0" stroke-width="2" d="M466.822,-287.8314C457.6412,-279.1337 446.4994,-268.5783 436.5224,-259.1265"/>
<polygon fill="#c0c0c0" stroke="#c0c0c0" stroke-width="2" points="438.8385,-256.4995 429.1719,-252.1628 434.0243,-261.5811 438.8385,-256.4995"/>
</g>
<!-- 19 -->
<g id="node20" class="node">
<title>19</title>
<path fill="none" stroke="#ced856" stroke-width="2" d="M364.5,-612C364.5,-612 333.5,-612 333.5,-612 327.5,-612 321.5,-606 321.5,-600 321.5,-600 321.5,-588 321.5,-588 321.5,-582 327.5,-576 333.5,-576 333.5,-576 364.5,-576 364.5,-576 370.5,-576 376.5,-582 376.5,-588 376.5,-588 376.5,-600 376.5,-600 376.5,-606 370.5,-612 364.5,-612"/>
<text text-anchor="middle" x="349" y="-591.5" font-family="sans" font-size="10.00" fill="#000000">cutadapt</text>
</g>
<!-- 19&#45;&gt;14 -->
<g id="edge26" class="edge">
<title>19&#45;&gt;14</title>
<path fill="none" stroke="#c0c0c0" stroke-width="2" d="M349,-575.8314C349,-568.131 349,-558.9743 349,-550.4166"/>
<polygon fill="#c0c0c0" stroke="#c0c0c0" stroke-width="2" points="352.5001,-550.4132 349,-540.4133 345.5001,-550.4133 352.5001,-550.4132"/>
</g>
</g>
</svg>
